<svg width="19" height="19" viewBox="0 0 19 19" fill="none" xmlns="http://www.w3.org/2000/svg">
<g clip-path="url(#clip0_227_2377)">
<path d="M9.5 4.75C8.87011 4.75 8.26602 5.00022 7.82062 5.44562C7.37522 5.89102 7.125 6.49511 7.125 7.125V16.625C7.125 17.2549 7.37522 17.859 7.82062 18.3044C8.26602 18.7498 8.87011 19 9.5 19C10.1299 19 10.734 18.7498 11.1794 18.3044C11.6248 17.859 11.875 17.2549 11.875 16.625V7.125C11.875 6.49511 11.6248 5.89102 11.1794 5.44562C10.734 5.00022 10.1299 4.75 9.5 4.75Z" fill="#1C4455"/>
<path d="M16.625 0C15.9951 0 15.391 0.250222 14.9456 0.695621C14.5002 1.14102 14.25 1.74511 14.25 2.375V16.625C14.25 17.2549 14.5002 17.859 14.9456 18.3044C15.391 18.7498 15.9951 19 16.625 19C17.2549 19 17.859 18.7498 18.3044 18.3044C18.7498 17.859 19 17.2549 19 16.625V2.375C19 1.74511 18.7498 1.14102 18.3044 0.695621C17.859 0.250222 17.2549 0 16.625 0V0ZM17.4167 16.625C17.4167 16.835 17.3333 17.0363 17.1848 17.1848C17.0363 17.3333 16.835 17.4167 16.625 17.4167C16.415 17.4167 16.2137 17.3333 16.0652 17.1848C15.9167 17.0363 15.8333 16.835 15.8333 16.625V2.375C15.8333 2.16504 15.9167 1.96367 16.0652 1.81521C16.2137 1.66674 16.415 1.58333 16.625 1.58333C16.835 1.58333 17.0363 1.66674 17.1848 1.81521C17.3333 1.96367 17.4167 2.16504 17.4167 2.375V16.625Z" fill="#1C4455"/>
<path d="M2.375 9.5C1.74511 9.5 1.14102 9.75022 0.695621 10.1956C0.250222 10.641 0 11.2451 0 11.875L0 16.625C0 17.2549 0.250222 17.859 0.695621 18.3044C1.14102 18.7498 1.74511 19 2.375 19C3.00489 19 3.60898 18.7498 4.05438 18.3044C4.49978 17.859 4.75 17.2549 4.75 16.625V11.875C4.75 11.2451 4.49978 10.641 4.05438 10.1956C3.60898 9.75022 3.00489 9.5 2.375 9.5Z" fill="#1C4455"/>
</g>
<defs>
<clipPath id="clip0_227_2377">
<rect width="19" height="19" fill="white"/>
</clipPath>
</defs>
</svg>
