<svg width="134" height="86" viewBox="0 0 134 86" fill="none" xmlns="http://www.w3.org/2000/svg">
<path d="M133.695 0H0V85.702H133.695V0Z" fill="#16366F"/>
<path d="M76.9615 42.851C76.9615 59.8445 63.1858 73.618 46.1928 73.618C29.1998 73.618 15.4258 59.8438 15.4258 42.851C15.4258 25.8592 29.2001 12.084 46.1928 12.084C63.1853 12.084 76.9615 25.8597 76.9615 42.851Z" fill="#D9222A"/>
<path d="M87.4996 12.0833C79.5498 12.0833 72.3058 15.0993 66.8454 20.0477C65.733 21.0571 64.6946 22.1452 63.7387 23.3037H69.9548C70.806 24.3385 71.5893 25.427 72.3005 26.5626H61.3932C60.7372 27.6118 60.1454 28.6998 59.6207 29.8206H74.0721C74.568 30.8808 75.003 31.9683 75.3748 33.078H58.318C57.9596 34.1467 57.6612 35.2344 57.4238 36.3362H76.268C76.7289 38.4771 76.9611 40.6609 76.9606 42.8509C76.9606 46.2677 76.4029 49.5551 75.3744 52.6244H58.3177C58.6886 53.7349 59.1233 54.8227 59.6195 55.8828H74.0718C73.5466 57.0038 72.9542 58.092 72.2983 59.1417H61.3927C62.1047 60.2779 62.889 61.3663 63.7383 62.3977H69.9531C68.9984 63.5584 67.9597 64.6475 66.8456 65.6564C72.3065 70.6043 79.5497 73.6188 87.4997 73.6188C104.492 73.6186 118.268 59.8445 118.268 42.8518C118.268 25.8605 104.493 12.0848 87.4997 12.0848" fill="#EE9F2D"/>
<path d="M114.169 60.0017C114.169 59.453 114.613 59.0074 115.162 59.0074C115.711 59.0074 116.156 59.453 116.156 60.0017C116.156 60.55 115.711 60.9956 115.162 60.9956C114.613 60.9955 114.169 60.5503 114.169 60.0017ZM115.162 60.7572C115.58 60.7571 115.918 60.4187 115.918 60.0017C115.918 59.5847 115.58 59.2468 115.163 59.2468H115.162C114.746 59.2461 114.408 59.5833 114.407 59.9996V60.0018C114.407 60.4187 114.744 60.7571 115.161 60.7574C115.161 60.7572 115.162 60.7572 115.162 60.7572ZM115.028 60.4384H114.824V59.5653H115.193C115.27 59.5653 115.348 59.5653 115.416 59.6088C115.487 59.6565 115.527 59.7408 115.527 59.8279C115.527 59.9256 115.469 60.0171 115.376 60.0528L115.536 60.4384H115.311L115.177 60.0929H115.028L115.028 60.4384ZM115.028 59.9431H115.141C115.183 59.9431 115.227 59.9465 115.265 59.9259C115.299 59.9045 115.316 59.8644 115.316 59.8258C115.316 59.7924 115.295 59.7538 115.266 59.7374C115.231 59.7149 115.175 59.7201 115.136 59.7201H115.028V59.9431ZM39.0103 46.2199C38.6598 46.1793 38.5055 46.1683 38.2647 46.1683C36.3716 46.1683 35.4131 46.8178 35.4131 48.0997C35.4131 48.8901 35.881 49.3931 36.6107 49.3931C37.9713 49.3931 38.9519 48.0973 39.0103 46.2199ZM41.4393 51.8756H38.6718L38.7354 50.5599C37.8912 51.5998 36.7649 52.094 35.2345 52.094C33.4241 52.094 32.1828 50.6799 32.1828 48.6266C32.1828 45.5372 34.3418 43.7348 38.0477 43.7348C38.4262 43.7348 38.9118 43.769 39.4088 43.8323C39.5125 43.4139 39.5396 43.2348 39.5396 43.0095C39.5396 42.1683 38.9575 41.8546 37.3971 41.8546C35.7631 41.8361 34.4153 42.2439 33.8619 42.4261C33.8968 42.2153 34.3247 39.5708 34.3247 39.5708C35.9893 39.083 37.0872 38.8994 38.3226 38.8994C41.1907 38.8994 42.7099 40.187 42.7072 42.621C42.7126 43.2732 42.6048 44.0779 42.4363 45.1356C42.1463 46.975 41.5245 50.915 41.4393 51.8756ZM30.7852 51.8756H27.4448L29.3582 39.8778L25.086 51.8756H22.8097L22.5286 39.9464L20.5174 51.8756H17.3906L20.0025 36.2686H24.8052L25.0966 45.0043L28.0262 36.2686H33.3684L30.7852 51.8756ZM91.6301 46.2199C91.281 46.1793 91.1259 46.1683 90.8859 46.1683C88.9934 46.1683 88.0348 46.8178 88.0348 48.0997C88.0348 48.8901 88.502 49.3931 89.2317 49.3931C90.5925 49.3931 91.5737 48.0973 91.6301 46.2199ZM94.0612 51.8756H91.2938L91.3564 50.5599C90.5122 51.5998 89.3853 52.094 87.8563 52.094C86.0453 52.094 84.8053 50.6799 84.8053 48.6266C84.8053 45.5372 86.9628 43.7348 90.6694 43.7348C91.0479 43.7348 91.5328 43.769 92.0293 43.8323C92.1329 43.4139 92.1601 43.2348 92.1601 43.0095C92.1601 42.1683 91.5787 41.8546 90.0183 41.8546C88.3843 41.8361 87.0379 42.2439 86.4822 42.4261C86.5173 42.2153 86.9465 39.5708 86.9465 39.5708C88.6114 39.083 89.7084 38.8994 90.9423 38.8994C93.8118 38.8994 95.3309 40.187 95.3282 42.621C95.3337 43.2732 95.2258 44.0779 95.0574 45.1356C94.7691 46.975 94.1455 50.915 94.0612 51.8756ZM56.2854 51.6828C55.3712 51.9707 54.6585 52.094 53.8858 52.094C52.1781 52.094 51.2462 51.1127 51.2462 49.3057C51.2218 48.7452 51.4918 47.2696 51.7038 45.9227C51.8966 44.7371 53.1522 37.2617 53.1522 37.2617H56.4724L56.0847 39.183H58.0902L57.6371 42.2333H55.6245C55.2389 44.6471 54.6897 47.6539 54.6833 48.0524C54.6833 48.7067 55.0325 48.9922 55.8266 48.9922C56.2073 48.9922 56.5021 48.9535 56.7273 48.8722L56.2854 51.6828ZM66.4653 51.5799C65.3248 51.9284 64.2242 52.097 63.058 52.0941C59.3414 52.0905 57.4039 50.1494 57.4039 46.4323C57.4039 42.0936 59.8686 38.8996 63.2144 38.8996C65.9518 38.8996 67.7001 40.6879 67.7001 43.4926C67.7001 44.4231 67.5801 45.3316 67.2909 46.6142H60.679C60.4555 48.4554 61.6338 49.2224 63.565 49.2224C64.7537 49.2224 65.8254 48.9773 67.0174 48.4232L66.4653 51.5799ZM64.5992 44.0553C64.6176 43.7908 64.9513 41.7898 63.0544 41.7898C61.9966 41.7898 61.2404 42.5961 60.9324 44.0553H64.5992ZM43.4445 43.1953C43.4445 44.8009 44.2229 45.9078 45.9883 46.7393C47.3411 47.375 47.5504 47.5636 47.5504 48.1397C47.5504 48.931 46.9539 49.2881 45.632 49.2881C44.6358 49.2881 43.7088 49.1326 42.6396 48.7876C42.6396 48.7876 42.2003 51.5849 42.1803 51.7188C42.9396 51.8843 43.6166 52.0377 45.6563 52.0941C49.1807 52.0941 50.8084 50.7522 50.8084 47.8519C50.8084 46.1078 50.1271 45.0844 48.4538 44.3153C47.0533 43.6725 46.8925 43.5289 46.8925 42.9362C46.8925 42.2499 47.4475 41.8999 48.5274 41.8999C49.183 41.8999 50.0786 41.9698 50.927 42.0906L51.4027 39.1468C50.5378 39.0097 49.2265 38.8996 48.4631 38.8996C44.7265 38.8996 43.4331 40.8514 43.4445 43.1953ZM82.7115 39.2332C83.6393 39.2332 84.5042 39.4766 85.6961 40.0765L86.2424 36.6892C85.7532 36.4972 84.0306 35.3694 82.5716 35.3694C80.3362 35.3694 78.4466 36.4784 77.1175 38.309C75.179 37.6669 74.3821 38.9646 73.4051 40.2573L72.5375 40.4594C72.6031 40.0338 72.6626 39.6109 72.6425 39.1831H69.5751C69.156 43.1112 68.4131 47.09 67.8317 51.0229L67.6802 51.8758H71.0219C71.5796 48.2518 71.8854 45.9313 72.0711 44.3611L73.3295 43.6611C73.5174 42.9617 74.1058 42.7255 75.2863 42.754C75.1275 43.6124 75.0482 44.4834 75.0492 45.3566C75.0492 49.5088 77.2896 52.0941 80.8855 52.0941C81.8118 52.0941 82.6067 51.9721 83.8373 51.6387L84.4253 48.0804C83.3181 48.6254 82.4095 48.8818 81.5867 48.8818C79.6451 48.8818 78.4701 47.4486 78.4701 45.0794C78.4699 41.6428 80.2175 39.2332 82.7115 39.2332Z" fill="black"/>
<path d="M31.7461 50.9481H28.4053L30.3198 38.9519L26.0476 50.9481H23.771L23.4896 39.0204L21.4785 50.9481H18.3516L20.9634 35.3431H25.7662L25.9012 45.0038L29.1414 35.3431H34.3293L31.7461 50.9481Z" fill="white"/>
<path d="M110.988 36.269L110.248 40.7783C109.334 39.5765 108.353 38.7066 107.057 38.7066C105.372 38.7066 103.838 39.9842 102.834 41.8647C101.435 41.5747 99.9889 41.0826 99.9889 41.0826L99.9882 41.0941C100.101 40.0428 100.146 39.4014 100.136 39.1836H97.0678C96.6501 43.1117 95.9074 47.0905 95.3269 51.0233L95.1738 51.8762H98.5148C98.9661 48.9457 99.3119 46.5125 99.5661 44.5828C100.707 43.5515 101.279 42.6516 102.432 42.7116C101.921 43.9467 101.622 45.3691 101.622 46.8282C101.622 50.0014 103.228 52.0946 105.656 52.0946C106.88 52.0946 107.819 51.6726 108.735 50.6942L108.579 51.8742H111.739L114.283 36.269H110.988ZM106.811 48.943C105.674 48.943 105.1 48.1016 105.1 46.441C105.1 43.9466 106.175 42.1773 107.69 42.1773C108.837 42.1773 109.459 43.0522 109.459 44.6641C109.459 47.1804 108.367 48.943 106.811 48.943Z" fill="black"/>
<path d="M39.9687 45.2952C39.6187 45.2547 39.4638 45.2438 39.2238 45.2438C37.3305 45.2438 36.3727 45.893 36.3727 47.175C36.3727 47.9641 36.8406 48.4685 37.5691 48.4685C38.9309 48.4684 39.9115 47.1729 39.9687 45.2952ZM42.3991 50.9488H39.6316L39.6945 49.6353C38.851 50.673 37.7233 51.1694 36.1943 51.1694C34.383 51.1694 33.1426 49.7553 33.1426 47.702C33.1426 44.6113 35.3007 42.8098 39.0073 42.8098C39.386 42.8098 39.8716 42.8441 40.3679 42.9077C40.4715 42.4891 40.4986 42.31 40.4986 42.0836C40.4986 41.2423 39.9173 40.93 38.3567 40.93C36.722 40.9115 35.3751 41.3195 34.8208 41.4994C34.8558 41.2893 35.2836 38.6476 35.2836 38.6476C36.9477 38.1577 38.0468 37.974 39.2809 37.974C42.1499 37.974 43.6695 39.2626 43.6668 41.6943C43.6718 42.3491 43.5631 43.1533 43.3953 44.2097C43.1061 46.048 42.4834 49.9903 42.3991 50.9488ZM87.2006 35.7637L86.6535 39.1519C85.4623 38.5527 84.5967 38.3084 83.6699 38.3084C81.1758 38.3084 79.4276 40.718 79.4276 44.1545C79.4276 46.5235 80.603 47.9564 82.5443 47.9564C83.367 47.9564 84.2748 47.7007 85.3817 47.1547L84.7955 50.7114C83.5641 51.0472 82.7702 51.1694 81.8429 51.1694C78.2475 51.1694 76.0066 48.5839 76.0066 44.4316C76.0066 38.8524 79.102 34.953 83.5292 34.953C84.9873 34.9532 86.7108 35.5716 87.2006 35.7637ZM92.5899 45.2952C92.2401 45.2547 92.0858 45.2438 91.845 45.2438C89.9524 45.2438 88.9939 45.893 88.9939 47.175C88.9939 47.9641 89.4616 48.4685 90.191 48.4685C91.5514 48.4684 92.5327 47.1729 92.5899 45.2952ZM95.0203 50.9488H92.2521L92.3155 49.6353C91.4715 50.673 90.3444 51.1694 88.8154 51.1694C87.0049 51.1694 85.7638 49.7553 85.7638 47.702C85.7638 44.6113 87.9226 42.8098 91.6278 42.8098C92.0072 42.8098 92.4921 42.8441 92.989 42.9077C93.092 42.4891 93.1197 42.31 93.1197 42.0836C93.1197 41.2423 92.5383 40.93 90.9779 40.93C89.3439 40.9115 87.9961 41.3195 87.442 41.4994C87.477 41.2893 87.9055 38.6476 87.9055 38.6476C89.5696 38.1577 90.6678 37.974 91.9019 37.974C94.7716 37.974 96.2905 39.2626 96.2869 41.6943C96.2928 42.3491 96.185 43.1533 96.0163 44.2097C95.728 46.048 95.1037 49.9903 95.0203 50.9488ZM57.2445 50.7565C56.3296 51.0444 55.6169 51.1694 54.8449 51.1694C53.1372 51.1694 52.2053 50.1879 52.2053 48.3813C52.1816 47.8189 52.4516 46.3449 52.6638 44.9981C52.8557 43.811 54.1115 36.3366 54.1115 36.3366H57.431L57.0438 38.2584H58.7479L58.2944 41.3073H56.5846C56.199 43.7225 55.6483 46.7269 55.6426 47.1263C55.6426 47.7828 55.9926 48.0661 56.786 48.0661C57.1666 48.0661 57.461 48.0289 57.6866 47.9475L57.2445 50.7565ZM67.4246 50.6551C66.2847 51.0036 65.1826 51.1716 64.0171 51.1694C60.3003 51.1658 58.363 49.2246 58.363 45.5074C58.363 41.1673 60.8277 37.9742 64.1736 37.9742C66.9109 37.9742 68.6592 39.7617 68.6592 42.5678C68.6592 43.499 68.5392 44.4075 68.2509 45.6894H61.639C61.4152 47.5305 62.5935 48.2983 64.5249 48.2983C65.7128 48.2983 66.7854 48.0526 67.9765 47.4969L67.4246 50.6551ZM65.5576 43.1285C65.5777 42.8648 65.9106 40.863 64.0128 40.863C62.9559 40.863 62.1995 41.6715 61.8917 43.1285H65.5576ZM44.403 42.2708C44.403 43.876 45.1815 44.9817 46.9469 45.8145C48.2995 46.4501 48.5088 46.6393 48.5088 47.2149C48.5088 48.0063 47.9118 48.3633 46.5913 48.3633C45.5942 48.3633 44.6673 48.2077 43.5974 47.8628C43.5974 47.8628 43.1596 50.6601 43.1397 50.7938C43.8973 50.9596 44.575 51.1109 46.6148 51.1694C50.14 51.1694 51.767 49.8274 51.767 46.9278C51.767 45.1829 51.0863 44.1596 49.4122 43.3905C48.0124 42.7464 47.8504 42.605 47.8504 42.0114C47.8504 41.3258 48.4066 40.9731 49.4858 40.9731C50.1407 40.9731 51.0363 41.045 51.8861 41.1659L52.3611 38.2212C51.497 38.084 50.1858 37.9742 49.4222 37.9742C45.6849 37.9742 44.3923 39.9246 44.403 42.2708ZM112.699 50.9488H109.539L109.696 49.7673C108.779 50.7472 107.84 51.1694 106.616 51.1694C104.188 51.1694 102.583 49.076 102.583 45.903C102.583 41.6813 105.072 38.1224 108.018 38.1224C109.314 38.1224 110.294 38.6517 111.207 39.8529L111.948 35.3436H115.243L112.699 50.9488ZM107.772 48.0162C109.327 48.0162 110.42 46.2537 110.42 43.7392C110.42 42.1271 109.798 41.2523 108.65 41.2523C107.135 41.2523 106.059 43.0206 106.059 45.5159C106.059 47.1762 106.635 48.0162 107.772 48.0162ZM98.0288 38.2584C97.6107 42.1864 96.8678 46.1652 96.2869 50.096L96.1342 50.9488H99.4751C100.67 43.1884 100.959 41.6729 102.833 41.8628C103.131 40.2746 103.686 38.8833 104.101 38.1812C102.702 37.8898 101.92 38.6805 100.898 40.1824C100.978 39.5333 101.126 38.9027 101.097 38.2584H98.0288ZM70.5321 38.2584C70.1129 42.1864 69.37 46.1652 68.7895 50.096L68.6374 50.9488H71.9798C73.1731 43.1884 73.4618 41.6729 75.334 41.8628C75.634 40.2746 76.1897 38.8833 76.6024 38.1812C75.2048 37.8898 74.4228 38.6805 73.4009 40.1824C73.4815 39.5333 73.628 38.9027 73.6001 38.2584H70.5321ZM114.166 49.9553C114.166 49.4044 114.611 48.9612 115.16 48.9612C115.708 48.9607 116.153 49.4046 116.153 49.9527V49.9553C116.153 50.5038 115.708 50.9484 115.16 50.9488C114.611 50.9484 114.167 50.5038 114.166 49.9553ZM115.16 50.7102C115.577 50.7103 115.915 50.3725 115.915 49.9558V49.9555C115.915 49.5385 115.577 49.2003 115.161 49.1999H115.16C114.743 49.2001 114.404 49.5383 114.404 49.9555C114.405 50.3723 114.743 50.7102 115.16 50.7102ZM115.026 50.3896H114.822V49.5182H115.191C115.268 49.5182 115.347 49.5196 115.413 49.5618C115.485 49.6103 115.525 49.6932 115.525 49.7801C115.525 49.8787 115.467 49.9709 115.373 50.0059L115.534 50.3891H115.308L115.175 50.045H115.026V50.3891V50.3896ZM115.026 49.896H115.138C115.18 49.896 115.226 49.8991 115.263 49.8789C115.296 49.8574 115.313 49.817 115.313 49.7782C115.312 49.7423 115.293 49.709 115.264 49.6884C115.229 49.6684 115.171 49.6739 115.133 49.6739H115.025L115.026 49.896Z" fill="white"/>
</svg>
